<?xml version="1.0" encoding="utf-8"?>
<!-- Generator: Adobe Illustrator 24.0.1, SVG Export Plug-In . SVG Version: 6.00 Build 0)  -->
<svg version="1.1" id="Camada_1" xmlns="http://www.w3.org/2000/svg" xmlns:xlink="http://www.w3.org/1999/xlink" x="0px" y="0px"
	 viewBox="0 0 139 42" style="enable-background:new 0 0 139 42;" xml:space="preserve">
<style type="text/css">
	.st0{fill-rule:evenodd;clip-rule:evenodd;fill:#F7CA0D;}
	.st1{fill:#261D46;}
</style>
<path class="st0" d="M41.47,20.81c0,4.08-1.21,8.08-3.48,11.47c-2.27,3.4-5.49,6.04-9.27,7.61s-7.93,1.97-11.93,1.18
	c-4.01-0.8-7.69-2.76-10.57-5.65c-2.89-2.89-4.85-6.57-5.65-10.57c-0.8-4.01-0.39-8.16,1.18-11.93c1.56-3.77,4.21-7,7.61-9.27
	c3.4-2.27,7.39-3.48,11.47-3.48c2.71,0,5.4,0.53,7.9,1.57c2.51,1.04,4.78,2.56,6.7,4.48c1.92,1.92,3.44,4.19,4.48,6.7
	C40.93,15.42,41.47,18.1,41.47,20.81z M10.71,23.25c0.49,1.78,1.82,2.66,4,2.66c1.4,0,2.46-0.47,3.17-1.42l2.95,1.7
	c-1.4,2.02-3.46,3.03-6.18,3.03c-2.34,0-4.22-0.71-5.64-2.13c-1.36-1.45-2.12-3.36-2.13-5.34c-0.01-1.99,0.74-3.9,2.1-5.36
	c1.4-1.43,3.19-2.14,5.39-2.14c0.96-0.03,1.92,0.15,2.8,0.52c0.89,0.37,1.68,0.93,2.34,1.63c1.35,1.44,2.08,3.35,2.03,5.33
	c0,0.5-0.05,1.01-0.14,1.5L10.71,23.25z M10.65,20.42h7.23c-0.14-0.86-0.6-1.63-1.29-2.15c-0.65-0.47-1.43-0.72-2.23-0.71
	c-0.87-0.03-1.73,0.23-2.44,0.75C11.27,18.84,10.81,19.59,10.65,20.42z M27.84,28.69c0.92,0.37,1.9,0.56,2.89,0.55l0,0
	c1.32,0.01,2.63-0.33,3.77-1.01c1.1-0.64,2.01-1.56,2.64-2.68l-3.17-1.81c-0.28,0.58-0.73,1.06-1.29,1.37
	c-0.6,0.34-1.28,0.51-1.97,0.5c-0.5,0.02-1.01-0.07-1.47-0.26c-0.47-0.19-0.89-0.47-1.25-0.83c-0.69-0.76-1.08-1.75-1.08-2.78
	s0.38-2.02,1.08-2.78c0.35-0.36,0.78-0.64,1.25-0.83c0.47-0.19,0.97-0.28,1.47-0.26c0.68-0.01,1.35,0.17,1.94,0.51
	c0.56,0.32,1.01,0.81,1.29,1.39l3.14-1.84c-0.59-1.12-1.48-2.04-2.58-2.66c-1.14-0.66-2.45-1.01-3.77-0.99
	c-0.99-0.01-1.97,0.17-2.89,0.55c-0.92,0.37-1.75,0.92-2.46,1.62c-0.7,0.7-1.26,1.52-1.64,2.44c-0.38,0.91-0.58,1.89-0.58,2.88
	c0,0.99,0.2,1.97,0.58,2.88c0.38,0.91,0.94,1.74,1.64,2.44C26.08,27.77,26.92,28.32,27.84,28.69z"/>
<path class="st1" d="M50.9,27.06c-1.05,1.04-2.38,1.75-3.83,2.03c-1.45,0.28-2.95,0.13-4.31-0.44c-1.36-0.57-2.53-1.53-3.35-2.76
	c-0.82-1.23-1.26-2.67-1.26-4.15c0-1.48,0.44-2.92,1.26-4.15c0.82-1.23,1.98-2.19,3.35-2.76c1.36-0.57,2.86-0.72,4.31-0.44
	c1.45,0.28,2.78,0.99,3.83,2.03c1.4,1.42,2.18,3.32,2.18,5.31S52.3,25.65,50.9,27.06z M42.84,24.56c0.36,0.36,0.78,0.65,1.25,0.84
	c0.47,0.19,0.98,0.28,1.48,0.27c0.51,0.01,1.02-0.08,1.49-0.27s0.9-0.48,1.26-0.84c0.71-0.76,1.11-1.76,1.11-2.81
	c0-1.04-0.4-2.04-1.11-2.81c-0.36-0.36-0.79-0.65-1.26-0.84s-0.98-0.28-1.49-0.27c-0.51-0.01-1.01,0.08-1.48,0.27
	c-0.47,0.19-0.9,0.48-1.25,0.84c-0.7,0.77-1.09,1.77-1.09,2.81C41.74,22.79,42.13,23.79,42.84,24.56z"/>
<path class="st1" d="M63.54,14.27c0.71-0.02,1.42,0.11,2.08,0.37s1.26,0.67,1.76,1.18c1.01,1.04,1.52,2.48,1.52,4.31v8.7h-3.66
	v-8.25c0-0.94-0.26-1.67-0.77-2.17c-0.27-0.26-0.59-0.45-0.94-0.58c-0.35-0.13-0.72-0.19-1.1-0.17c-0.42-0.02-0.84,0.05-1.23,0.2
	c-0.39,0.15-0.75,0.38-1.04,0.68c-0.57,0.59-0.85,1.46-0.85,2.64v7.65h-3.66V14.66h3.66v1.59C60.21,14.93,61.62,14.27,63.54,14.27"
	/>
<path class="st1" d="M81.09,14.66h4.02l-5.39,14.17h-4.17l-5.39-14.17h4.02l3.43,9.92L81.09,14.66z"/>
<path class="st1" d="M89.39,23.25c0.49,1.78,1.82,2.66,4,2.66c1.4,0,2.46-0.47,3.17-1.42l2.95,1.7c-1.4,2.02-3.46,3.03-6.18,3.03
	c-2.34,0-4.22-0.71-5.64-2.13c-1.36-1.45-2.12-3.36-2.13-5.34c-0.01-1.99,0.74-3.9,2.1-5.36c1.4-1.43,3.19-2.14,5.39-2.14
	c0.96-0.03,1.92,0.15,2.8,0.52c0.89,0.37,1.68,0.93,2.34,1.63c1.35,1.44,2.08,3.35,2.03,5.33c0,0.5-0.05,1.01-0.14,1.5L89.39,23.25z
	 M89.33,20.42h7.23c-0.14-0.86-0.6-1.63-1.29-2.15c-0.65-0.47-1.43-0.72-2.22-0.71c-0.87-0.03-1.73,0.23-2.44,0.75
	C89.95,18.84,89.49,19.59,89.33,20.42"/>
<path class="st1" d="M106.43,17.1c0.3-0.86,0.9-1.58,1.69-2.04c0.8-0.46,1.7-0.69,2.62-0.68v4.08c-1.05-0.15-2.11,0.09-2.99,0.68
	c-0.88,0.59-1.32,1.56-1.32,2.92v6.77h-3.66V14.66h3.66V17.1z"/>
<path class="st1" d="M115.78,18.69c0,0.38,0.25,0.69,0.75,0.92c0.59,0.27,1.2,0.48,1.83,0.62c0.73,0.18,1.45,0.41,2.15,0.68
	c0.72,0.28,1.36,0.76,1.83,1.37c0.52,0.69,0.78,1.54,0.75,2.41c0,1.46-0.54,2.57-1.63,3.36c-1.09,0.78-2.44,1.18-4.07,1.18
	c-2.91,0-4.9-1.12-5.95-3.37l3.18-1.79c0.41,1.23,1.34,1.84,2.78,1.84c1.3,0,1.95-0.41,1.95-1.22c0-0.38-0.25-0.68-0.75-0.92
	c-0.59-0.27-1.2-0.48-1.83-0.64c-0.73-0.19-1.45-0.43-2.15-0.71c-0.72-0.28-1.35-0.75-1.83-1.35c-0.51-0.66-0.78-1.48-0.75-2.31
	c-0.03-0.63,0.1-1.26,0.37-1.84c0.27-0.57,0.67-1.08,1.17-1.46c1.11-0.83,2.46-1.25,3.84-1.21c1.1-0.01,2.18,0.26,3.15,0.78
	c0.94,0.52,1.72,1.29,2.24,2.23l-3.12,1.7c-0.18-0.45-0.5-0.82-0.9-1.08s-0.88-0.39-1.36-0.36c-0.41-0.02-0.82,0.09-1.18,0.31
	c-0.14,0.09-0.26,0.21-0.35,0.36S115.78,18.52,115.78,18.69"/>
<path class="st1" d="M128.34,23.25c0.49,1.78,1.82,2.66,4,2.66c1.4,0,2.46-0.47,3.17-1.42l2.95,1.7c-1.4,2.02-3.46,3.03-6.18,3.03
	c-2.34,0-4.22-0.71-5.64-2.13c-1.36-1.45-2.12-3.36-2.13-5.34c-0.01-1.99,0.74-3.9,2.1-5.36c1.4-1.43,3.19-2.14,5.39-2.14
	c0.96-0.03,1.92,0.15,2.8,0.52c0.89,0.37,1.68,0.93,2.34,1.63c1.35,1.44,2.08,3.35,2.03,5.33c0,0.5-0.05,1.01-0.14,1.5L128.34,23.25
	z M128.28,20.42h7.23c-0.14-0.86-0.6-1.63-1.29-2.15c-0.65-0.47-1.43-0.72-2.22-0.71c-0.87-0.03-1.73,0.23-2.44,0.75
	C128.89,18.84,128.44,19.59,128.28,20.42z"/>
<path class="st1" d="M50.9,27.07c-1.05,1.04-2.38,1.75-3.83,2.03c-1.45,0.28-2.95,0.13-4.31-0.44c-1.36-0.57-2.53-1.53-3.35-2.76
	c-0.82-1.23-1.26-2.67-1.26-4.15c0-1.48,0.44-2.92,1.26-4.15c0.82-1.23,1.98-2.19,3.35-2.76s2.86-0.72,4.31-0.44
	c1.45,0.28,2.78,0.99,3.83,2.03c1.4,1.42,2.18,3.32,2.18,5.31S52.3,25.65,50.9,27.07z M42.83,24.56c0.36,0.36,0.78,0.65,1.25,0.84
	c0.47,0.19,0.98,0.28,1.48,0.27c0.51,0.01,1.02-0.08,1.49-0.27s0.9-0.48,1.26-0.84c0.71-0.76,1.11-1.76,1.11-2.81
	s-0.4-2.04-1.11-2.81c-0.36-0.36-0.79-0.65-1.26-0.84c-0.47-0.19-0.98-0.28-1.49-0.27c-0.51-0.01-1.01,0.08-1.48,0.27
	c-0.47,0.19-0.9,0.48-1.25,0.84c-0.7,0.77-1.09,1.77-1.09,2.81C41.74,22.79,42.13,23.79,42.83,24.56z"/>
<path class="st1" d="M63.54,14.27c0.71-0.02,1.42,0.11,2.08,0.37c0.66,0.27,1.26,0.67,1.76,1.18c1.01,1.04,1.52,2.48,1.52,4.31v8.7
	h-3.66v-8.25c0-0.94-0.26-1.67-0.77-2.17c-0.27-0.26-0.59-0.45-0.94-0.58c-0.35-0.13-0.72-0.19-1.1-0.17
	c-0.42-0.02-0.84,0.05-1.23,0.2c-0.39,0.15-0.75,0.38-1.04,0.68c-0.57,0.59-0.85,1.46-0.85,2.64v7.65h-3.66V14.66h3.66v1.59
	C60.21,14.93,61.61,14.27,63.54,14.27"/>
<path class="st1" d="M81.09,14.66h4.02l-5.39,14.17h-4.17l-5.39-14.17h4.02l3.43,9.92L81.09,14.66z"/>
<path class="st1" d="M89.39,23.25c0.49,1.78,1.82,2.66,4,2.66c1.4,0,2.46-0.47,3.17-1.42l2.95,1.7c-1.4,2.02-3.46,3.03-6.18,3.03
	c-2.34,0-4.22-0.71-5.64-2.13c-1.36-1.45-2.12-3.36-2.13-5.34c-0.01-1.99,0.74-3.9,2.1-5.36c1.4-1.43,3.19-2.14,5.39-2.14
	c0.96-0.03,1.92,0.15,2.8,0.52c0.89,0.37,1.68,0.93,2.34,1.63c1.35,1.44,2.08,3.35,2.03,5.33c0,0.5-0.05,1.01-0.14,1.5L89.39,23.25z
	 M89.33,20.42h7.23c-0.14-0.86-0.6-1.63-1.29-2.15c-0.65-0.47-1.43-0.72-2.22-0.71c-0.87-0.03-1.73,0.23-2.44,0.75
	C89.94,18.84,89.49,19.59,89.33,20.42"/>
<path class="st1" d="M106.43,17.1c0.3-0.86,0.9-1.58,1.69-2.04c0.8-0.46,1.7-0.69,2.62-0.68v4.08c-1.05-0.15-2.11,0.09-2.99,0.68
	c-0.88,0.59-1.32,1.56-1.32,2.92v6.77h-3.66V14.66h3.66V17.1z"/>
<path class="st1" d="M115.78,18.69c0,0.38,0.25,0.69,0.75,0.92c0.59,0.27,1.2,0.48,1.83,0.62c0.73,0.18,1.45,0.41,2.15,0.68
	c0.72,0.28,1.36,0.76,1.83,1.37c0.52,0.69,0.78,1.54,0.75,2.41c0,1.46-0.54,2.57-1.63,3.36c-1.09,0.78-2.44,1.18-4.07,1.17
	c-2.91,0-4.89-1.12-5.95-3.37l3.18-1.79c0.41,1.23,1.34,1.84,2.78,1.84c1.3,0,1.95-0.41,1.95-1.22c0-0.38-0.25-0.68-0.75-0.92
	c-0.59-0.27-1.2-0.48-1.83-0.64c-0.73-0.19-1.45-0.43-2.15-0.71c-0.72-0.28-1.35-0.75-1.83-1.35c-0.52-0.66-0.78-1.48-0.75-2.31
	c-0.03-0.63,0.1-1.26,0.37-1.84c0.27-0.57,0.67-1.08,1.18-1.46c1.11-0.83,2.46-1.25,3.84-1.2c1.1-0.01,2.18,0.25,3.15,0.78
	c0.94,0.52,1.72,1.29,2.24,2.23l-3.12,1.7c-0.18-0.45-0.5-0.82-0.9-1.08c-0.41-0.26-0.88-0.39-1.36-0.36
	c-0.41-0.02-0.82,0.09-1.18,0.31c-0.15,0.09-0.26,0.21-0.35,0.36C115.82,18.35,115.78,18.52,115.78,18.69"/>
<path class="st1" d="M128.34,23.25c0.49,1.78,1.82,2.66,4,2.66c1.4,0,2.46-0.47,3.17-1.42l2.95,1.7c-1.4,2.02-3.46,3.03-6.18,3.03
	c-2.34,0-4.22-0.71-5.64-2.13c-1.36-1.45-2.12-3.36-2.13-5.34c-0.01-1.99,0.74-3.9,2.1-5.36c1.4-1.43,3.19-2.14,5.38-2.14
	c0.96-0.03,1.92,0.15,2.81,0.52c0.89,0.37,1.68,0.93,2.34,1.63c1.35,1.44,2.08,3.35,2.03,5.33c0,0.5-0.05,1.01-0.14,1.5
	L128.34,23.25z M128.28,20.42h7.23c-0.14-0.86-0.6-1.63-1.29-2.15c-0.65-0.47-1.43-0.72-2.23-0.71c-0.88-0.03-1.74,0.23-2.44,0.75
	C128.89,18.84,128.44,19.59,128.28,20.42z"/>
</svg>
