<?xml version="1.0" encoding="utf-8"?>
<!-- Generator: Adobe Illustrator 24.0.1, SVG Export Plug-In . SVG Version: 6.00 Build 0)  -->
<svg version="1.1" id="Camada_1" xmlns="http://www.w3.org/2000/svg" xmlns:xlink="http://www.w3.org/1999/xlink" x="0px" y="0px"
	 viewBox="0 0 20 20" style="enable-background:new 0 0 20 20;" xml:space="preserve">
<style type="text/css">
	.st0{fill:none;stroke:#9F9F9F;stroke-width:2;stroke-linecap:round;stroke-linejoin:round;}
</style>
<path class="st0" d="M3.69,15.71c0.02,0.08,0.06,0.16,0.11,0.23c0.05,0.07,0.11,0.13,0.19,0.17c0.07,0.04,0.15,0.07,0.24,0.08
	c0.08,0.01,0.17,0,0.25-0.02c3.73-1.03,7.66-1.03,11.39,0c0.08,0.02,0.17,0.03,0.25,0.02c0.08-0.01,0.16-0.04,0.24-0.08
	c0.07-0.04,0.14-0.1,0.19-0.17c0.05-0.07,0.09-0.15,0.11-0.23l1.99-8.46c0.03-0.11,0.02-0.23-0.02-0.34
	c-0.04-0.11-0.1-0.21-0.19-0.28c-0.09-0.07-0.2-0.12-0.31-0.14c-0.12-0.02-0.23,0-0.34,0.05l-3.95,1.76
	c-0.14,0.06-0.3,0.07-0.45,0.02s-0.27-0.15-0.35-0.29l-2.3-4.14c-0.05-0.1-0.13-0.18-0.23-0.24c-0.1-0.06-0.21-0.09-0.32-0.09
	c-0.11,0-0.22,0.03-0.32,0.09c-0.1,0.06-0.18,0.14-0.23,0.24l-2.3,4.14c-0.08,0.14-0.2,0.24-0.35,0.29
	C6.82,8.36,6.66,8.36,6.52,8.29L2.57,6.54C2.46,6.49,2.34,6.47,2.23,6.49C2.11,6.5,2,6.55,1.91,6.63C1.82,6.7,1.76,6.8,1.72,6.91
	C1.68,7.02,1.68,7.14,1.7,7.25L3.69,15.71z"/>
</svg>
