<?xml version="1.0" encoding="utf-8"?>
<!-- Generator: Adobe Illustrator 24.0.1, SVG Export Plug-In . SVG Version: 6.00 Build 0)  -->
<svg version="1.1" id="Camada_1" xmlns="http://www.w3.org/2000/svg" xmlns:xlink="http://www.w3.org/1999/xlink" x="0px" y="0px"
	 viewBox="0 0 24 24" style="enable-background:new 0 0 24 24;" xml:space="preserve">
<style type="text/css">
	.st0{fill:#9F9F9F;stroke:#9F9F9F;stroke-width:0.2;}
</style>
<path class="st0" d="M20.68-0.05L20.68-0.05l-0.04,0h-0.04h-0.04h-0.04H20.5h-0.04h-0.04H20.4h-0.04h-0.04h-0.04h-0.04h-0.04h-0.04
	h-0.04h-0.04h-0.04h-0.04H20h-0.04h-0.04h-0.04h-0.04h-0.04h-0.04h-0.04h-0.04h-0.04h-0.04h-0.04h-0.04h-0.04H19.5h-0.04h-0.04
	h-0.04h-0.04h-0.04h-0.04h-0.04h-0.04h-0.04h-0.04H19.1h-0.04h-0.04h-0.04h-0.04h-0.04h-0.04h-0.04h-0.04h-0.04h-0.04h-0.04h-0.04
	h-0.04H18.6h-0.04h-0.04h-0.04h-0.04h-0.04h-0.04h-0.04h-0.04h-0.04h-0.04H18.2h-0.04h-0.04H18.1h-0.04h-0.04h-0.04h-0.04h-0.04
	h-0.04h-0.04h-0.04h-0.04h-0.04H17.7h-0.04h-0.04h-0.04h-0.04h-0.04h-0.04h-0.04h-0.04h-0.04h-0.04H17.3h-0.04h-0.04H17.2h-0.04
	h-0.04h-0.04h-0.04h-0.04h-0.04h-0.04h-0.04h-0.04h-0.04H16.8h-0.04h-0.04h-0.04h-0.04h-0.04h-0.04h-0.04h-0.04h-0.04h-0.04h-0.04
	h-0.04h-0.04H16.3h-0.04h-0.04h-0.04h-0.04h-0.04h-0.04h-0.04h-0.04h-0.04h-0.04H15.9h-0.04h-0.04h-0.04h-0.04h-0.04h-0.04h-0.04
	h-0.04h-0.04h-0.04h-0.04h-0.04h-0.04H15.4h-0.04h-0.04h-0.04h-0.04h-0.04h-0.04h-0.04h-0.04h-0.04h-0.04H15h-0.04h-0.04h-0.04
	h-0.04h-0.04h-0.04h-0.04h-0.04h-0.04h-0.04h-0.04h-0.04h-0.04H14.5h-0.04h-0.04h-0.04h-0.04h-0.04h-0.04h-0.04h-0.04h-0.04h-0.04
	H14.1h-0.04h-0.04H14h-0.04h-0.04h-0.04h-0.04h-0.04h-0.04h-0.04h-0.04h-0.04h-0.04H13.6h-0.04h-0.04h-0.04h-0.04h-0.04h-0.04h-0.04
	h-0.04h-0.04h-0.04H13.2h-0.04h-0.04H13.1h-0.04h-0.04h-0.04h-0.04h-0.04h-0.04h-0.04h-0.04h-0.04h-0.04H12.7h-0.04h-0.04h-0.04
	h-0.04h-0.04h-0.04h-0.04h-0.04h-0.04h-0.04H12.3h-0.04h-0.04H12.2h-0.04h-0.04h-0.04h-0.04h-0.04h-0.04h-0.04h-0.04h-0.04h-0.04
	H11.8h-0.04h-0.04h-0.04h-0.04h-0.04h-0.04h-0.04h-0.04h-0.04h-0.04H11.4h-0.04h-0.04H11.3h-0.04h-0.04h-0.04h-0.04h-0.04h-0.04
	h-0.04h-0.04h-0.04h-0.04H10.9h-0.04h-0.04h-0.04h-0.04h-0.04h-0.04h-0.04h-0.04h-0.04h-0.04H10.5h-0.04h-0.04H10.4h-0.04h-0.04
	h-0.04h-0.04h-0.04h-0.04h-0.04h-0.04h-0.04h-0.04H10H9.96H9.93H9.89H9.86H9.82H9.79H9.75H9.71H9.68H9.64H9.61H9.57H9.53H9.5H9.46
	H9.43H9.39H9.35H9.32H9.28H9.25H9.21H9.17H9.14H9.1H9.07H9.03H8.99H8.96H8.92H8.89H8.85H8.81H8.78H8.74H8.71H8.67H8.63H8.6H8.56
	H8.53H8.49H8.45H8.42H8.38H8.35H8.31H8.27H8.24H8.2H8.17H8.13H8.09H8.06H8.02H7.99H7.95H7.91H7.88H7.84H7.81H7.77H7.73H7.7H7.66
	H7.63H7.59H7.55H7.52H7.48H7.45H7.41H7.37H7.34H7.3H7.27H7.23H7.19H7.16H7.12H7.09H7.05H7.01H6.98H6.94H6.91H6.87H6.83H6.8H6.76
	H6.73H6.69H6.65H6.62H6.58H6.55H6.51H6.47H6.44H6.4H6.37H6.33H6.29H6.26H6.22H6.19H6.15H6.11H6.08H6.04H6.01H5.97H5.93H5.9H5.86
	H5.83H5.79H5.75H5.72H5.68H5.65H5.61H5.57H5.54H5.5H5.47H5.43H5.39H5.36H5.32H5.29H5.25H5.21H5.18H5.14H5.11H5.07H5.04H5H4.96H4.93
	H4.89H4.86H4.82H4.78H4.75H4.71H4.68H4.64H4.6H4.57H4.53H4.5H4.46H4.42H4.39H4.35H4.32H4.28H4.24H4.21H4.17H4.14H4.1H4.06H4.03H3.99
	H3.96H3.92H3.88H3.85H3.81H3.78H3.74H3.7H3.67H3.63H3.6H3.56H3.52H3.49H3.45H3.42H3.38H3.34H3.31H3.27H3.24H3.2H3.16H3.13H3.09H3.06
	H3.02H2.98H2.95H2.91H2.88H2.84H2.8H2.77H2.73H2.7H2.66H2.62H2.59H2.55H2.52H2.48H2.44H2.41H2.37H2.34H2.3H2.27h0v0.1
	c-0.31,0-0.6,0.22-0.68,0.52L20.68-0.05z M20.68-0.05L20.68-0.05c0.31,0.03,0.58,0.24,0.69,0.52l0,0l0,0l2.47,6.72c0,0,0,0,0,0
	c0.03,0.09,0.05,0.18,0.05,0.28v0v3.88c0.01,0.43-0.38,0.82-0.81,0.82c-0.43,0-0.81-0.39-0.81-0.82V8.27 M20.68-0.05l1.6,8.32
	 M22.28,8.27H1.31v14.27h20.98v-6.86h-8.62v1.66v0c0,0.3-0.19,0.54-0.43,0.67c-0.24,0.13-0.55,0.16-0.8,0.01l0,0l-3.88-2.47
	c-0.23-0.15-0.35-0.42-0.35-0.68c0-0.26,0.11-0.53,0.35-0.68l3.88-2.47c0,0,0,0,0,0c0.16-0.1,0.35-0.15,0.54-0.13l0,0l0,0
	c0.38,0.05,0.7,0.42,0.69,0.81 M22.28,8.27l-8.62,4.14 M13.66,12.41L13.66,12.41l-0.1,0L13.66,12.41
	C13.66,12.41,13.66,12.41,13.66,12.41z M13.66,14.07h9.43c0.42,0,0.81,0.38,0.81,0.81v8.47c0,0.42-0.38,0.81-0.81,0.81H0.5
	c-0.42,0-0.81-0.38-0.81-0.81V7.46 M13.66,14.07L-0.31,7.46 M13.66,14.07h-0.1v-1.66c0-0.34-0.27-0.66-0.61-0.71
	c-0.16-0.02-0.34,0.02-0.47,0.11L8.6,14.28c-0.4,0.25-0.4,0.94,0,1.19L13.66,14.07z M13.66,14.07v0.1V14.07z M-0.31,7.46L-0.31,7.46
	l0.1,0L-0.31,7.46z M21.93,6.66l-1.88-5.09h-7.1v5.09H21.93z M11.34,1.56H2.88L1.55,6.66h9.8V1.56z M12.05,15.88v-2.02l-1.58,1.01
	L12.05,15.88z"/>
</svg>
