<?xml version="1.0" encoding="utf-8"?>
<!-- Generator: Adobe Illustrator 24.0.1, SVG Export Plug-In . SVG Version: 6.00 Build 0)  -->
<svg version="1.1" id="Camada_1" xmlns="http://www.w3.org/2000/svg" xmlns:xlink="http://www.w3.org/1999/xlink" x="0px" y="0px"
	 viewBox="0 0 32 32" style="enable-background:new 0 0 32 32;" xml:space="preserve">
<style type="text/css">
	.st0{clip-path:url(#SVGID_2_);}
	.st1{fill:none;stroke:#9F9F9F;stroke-width:2;stroke-linecap:round;stroke-linejoin:round;}
</style>
<g>
	<defs>
		<rect id="SVGID_1_" x="-0.18" y="0.26" width="32" height="32"/>
	</defs>
	<clipPath id="SVGID_2_">
		<use xlink:href="#SVGID_1_"  style="overflow:visible;"/>
	</clipPath>
	<g class="st0">
		<path class="st1" d="M15.82,27.26c0,0-12.5-7-12.5-15.5c0-1.5,0.52-2.96,1.47-4.12c0.95-1.16,2.28-1.96,3.75-2.25
			c1.47-0.3,3-0.07,4.33,0.63c1.33,0.71,2.37,1.85,2.95,3.23v0c0.58-1.39,1.62-2.53,2.95-3.23c1.33-0.71,2.86-0.93,4.33-0.63
			c1.47,0.3,2.8,1.09,3.75,2.25c0.95,1.16,1.47,2.62,1.47,4.12C28.32,20.26,15.82,27.26,15.82,27.26z"/>
	</g>
</g>
</svg>
