<?xml version="1.0" encoding="utf-8"?>
<!-- Generator: Adobe Illustrator 24.0.1, SVG Export Plug-In . SVG Version: 6.00 Build 0)  -->
<svg version="1.1" id="Camada_1" xmlns="http://www.w3.org/2000/svg" xmlns:xlink="http://www.w3.org/1999/xlink" x="0px" y="0px"
	 viewBox="0 0 32 32" style="enable-background:new 0 0 32 32;" xml:space="preserve">
<style type="text/css">
	.st0{clip-path:url(#SVGID_2_);}
	.st1{fill:none;stroke:#9F9F9F;stroke-width:2;stroke-linecap:round;stroke-linejoin:round;}
</style>
<g>
	<defs>
		<rect id="SVGID_1_" x="-0.18" y="0.26" width="32" height="32"/>
	</defs>
	<clipPath id="SVGID_2_">
		<use xlink:href="#SVGID_1_"  style="overflow:visible;"/>
	</clipPath>
	<g class="st0">
		<path class="st1" d="M22.82,23.26H8.54L5.06,4.08C5.02,3.85,4.89,3.64,4.71,3.49C4.53,3.34,4.31,3.26,4.07,3.26H1.82"/>
		<path class="st1" d="M9.82,28.26c1.38,0,2.5-1.12,2.5-2.5s-1.12-2.5-2.5-2.5c-1.38,0-2.5,1.12-2.5,2.5S8.44,28.26,9.82,28.26z"/>
		<path class="st1" d="M22.82,28.26c1.38,0,2.5-1.12,2.5-2.5s-1.12-2.5-2.5-2.5s-2.5,1.12-2.5,2.5S21.44,28.26,22.82,28.26z"/>
		<path class="st1" d="M7.64,18.26h15.69c0.47,0,0.92-0.16,1.28-0.46c0.36-0.3,0.6-0.72,0.69-1.18l1.52-8.36h-21"/>
	</g>
</g>
</svg>
