<?xml version="1.0" encoding="utf-8"?>
<!-- Generator: Adobe Illustrator 24.0.1, SVG Export Plug-In . SVG Version: 6.00 Build 0)  -->
<svg version="1.1" id="Camada_1" xmlns="http://www.w3.org/2000/svg" xmlns:xlink="http://www.w3.org/1999/xlink" x="0px" y="0px"
	 viewBox="0 0 20 20" style="enable-background:new 0 0 20 20;" xml:space="preserve">
<style type="text/css">
	.st0{clip-path:url(#SVGID_2_);}
	.st1{fill:none;stroke:#9F9F9F;stroke-width:2;stroke-linecap:round;stroke-linejoin:round;}
	.st2{fill:none;stroke:#9F9F9F;stroke-width:2;stroke-miterlimit:10;}
</style>
<g>
	<defs>
		<rect id="SVGID_1_" x="0.17" y="-0.12" width="20" height="20"/>
	</defs>
	<clipPath id="SVGID_2_">
		<use xlink:href="#SVGID_1_"  style="overflow:visible;"/>
	</clipPath>
	<g class="st0">
		<path class="st1" d="M18.92,9.25h-5V6.13h3.33c0.12,0,0.25,0.04,0.35,0.11c0.1,0.07,0.18,0.17,0.23,0.29L18.92,9.25z"/>
		<path class="st1" d="M1.42,11.13h12.5"/>
		<path class="st2" d="M14.85,16.75c1.04,0,1.88-0.84,1.88-1.87S15.89,13,14.85,13s-1.88,0.84-1.88,1.88S13.82,16.75,14.85,16.75z"
			/>
		<path class="st2" d="M5.48,16.75c1.04,0,1.88-0.84,1.88-1.87S6.51,13,5.48,13S3.6,13.84,3.6,14.88S4.44,16.75,5.48,16.75z"/>
		<path class="st1" d="M12.98,14.88H7.35"/>
		<path class="st1" d="M3.6,14.88H2.04c-0.17,0-0.32-0.07-0.44-0.18c-0.12-0.12-0.18-0.28-0.18-0.44V5.5c0-0.17,0.07-0.32,0.18-0.44
			c0.12-0.12,0.28-0.18,0.44-0.18h11.88v8.38"/>
		<path class="st1" d="M13.92,13.26v-4h5v5c0,0.17-0.07,0.32-0.18,0.44c-0.12,0.12-0.28,0.18-0.44,0.18h-1.56"/>
	</g>
</g>
</svg>
