<?xml version="1.0" encoding="utf-8"?>
<!-- Generator: Adobe Illustrator 24.0.1, SVG Export Plug-In . SVG Version: 6.00 Build 0)  -->
<svg version="1.1" id="Camada_1" xmlns="http://www.w3.org/2000/svg" xmlns:xlink="http://www.w3.org/1999/xlink" x="0px" y="0px"
	 viewBox="0 0 32 32" style="enable-background:new 0 0 32 32;" xml:space="preserve">
<style type="text/css">
	.st0{clip-path:url(#SVGID_2_);}
	.st1{fill:none;stroke:#9F9F9F;stroke-width:2;stroke-miterlimit:10;}
	.st2{fill:none;stroke:#9F9F9F;stroke-width:2;stroke-linecap:round;stroke-linejoin:round;}
</style>
<g>
	<defs>
		<rect id="SVGID_1_" x="-0.18" y="0.26" width="32" height="32"/>
	</defs>
	<clipPath id="SVGID_2_">
		<use xlink:href="#SVGID_1_"  style="overflow:visible;"/>
	</clipPath>
	<g class="st0">
		<path class="st1" d="M15.82,28.26c6.63,0,12-5.37,12-12c0-6.63-5.37-12-12-12c-6.63,0-12,5.37-12,12
			C3.82,22.89,9.19,28.26,15.82,28.26z"/>
		<path class="st1" d="M15.82,20.26c2.76,0,5-2.24,5-5s-2.24-5-5-5s-5,2.24-5,5S13.06,20.26,15.82,20.26z"/>
		<path class="st2" d="M7.79,25.18c0.75-1.48,1.9-2.72,3.32-3.59c1.42-0.87,3.05-1.33,4.71-1.33c1.66,0,3.29,0.46,4.71,1.33
			c1.42,0.87,2.56,2.11,3.32,3.59"/>
	</g>
</g>
</svg>
